<?xml version="1.0" encoding="UTF-8"?>
<svg xmlns="http://www.w3.org/2000/svg" version="1.1" viewBox="0 0 500 500">
  <!-- Generator: Adobe Illustrator 28.6.0, SVG Export Plug-In . SVG Version: 1.2.0 Build 709)  -->
  <g>
    <g id="Layer_1">
      <path d="M90.6,76.1c30,16.9,58.6,27.2,90.8,9.6,28.7-15.7,51.3-36.5,66.5-68.8,3.5,5.2,6.2,9.2,8.9,13.3,19.6,29.6,42.6,54.8,79.4,62.1,22.1,4.4,42.8.1,61-12.8,9.6-6.8,13.5-6.1,14.8,5.7,6.4,60.8,6.3,121.4-10.1,180.6-20.3,73-55.5,137.5-113.2,187.8-10.6,9.2-22.5,17-34.2,24.8-2.2,1.5-7.3.8-9.7-.8-73.4-51.4-122.3-120.1-146.3-207.1-16.3-59-16.7-118.7-11.5-178.9.4-4.6,2.1-9.2,3.6-15.6ZM105.5,106.5c0,30.8-1.7,58.6.3,86.1,7.6,103.9,47.3,191.7,131,256.6,9.6,7.4,16.3,8.3,26.6.8,47.2-34.6,77.1-82.2,101.4-133.9,26.7-56.8,26.2-118.7,30.5-179.4,2.3-32.9.3-33.6-31.4-27.3-29.1,5.8-55.3-.4-78.4-18.1-13.4-10.2-25-22.6-38.5-35-37.2,41.9-79.1,73.1-141.5,50.2Z"/>
      <path d="M145.2,144.7c46.3,25.5,75.3-1.2,102.8-34.4,27.5,34.9,59.2,55.1,105.6,33.9.8,8.4,1.6,15.3,2,22.3,4.1,62.1-6.2,121.3-40.8,173.5-15.1,22.8-36.4,41.5-55.9,61.1-2.6,2.7-12.1,2.3-15.8-.4-39.8-29.1-70.1-66-86.9-113-15.6-43.5-17.3-88.9-14.7-134.5.1-2.6,2.1-5.1,3.6-8.5ZM166.6,248.1c6,0,11.7.5,17.3,0,14.5-1.5,28.6-.5,40.3,8.7,30.1,23.6,66.3,5.7,97.8,18.6,7.1-45.3-15.9-92.1-50.2-95.3-58.6-5.5-90.1,4.3-105.2,68.1Z"/>
    </g>
  </g>
</svg>