<?xml version="1.0" encoding="UTF-8"?>
<svg xmlns="http://www.w3.org/2000/svg" version="1.1" viewBox="0 0 500 500">
  <!-- Generator: Adobe Illustrator 28.6.0, SVG Export Plug-In . SVG Version: 1.2.0 Build 709)  -->
  <g>
    <g id="Layer_1">
      <path d="M254.7,468C113.3,371.8,84.5,213.9,106.5,87.7c27.3,14.3,54.9,25.3,85.1,8.6,26.6-14.8,47.7-34.7,62.2-64.3,5.1,7.2,9.5,13.1,13.8,19.1,17.9,25.8,39.6,46,72.1,51.8,20.1,3.6,37.7-1.5,54.3-12.3,6.4-4.1,12.7-7.3,14.1,4.7,15.4,133.4-13.4,252.3-115,346.8-10.2,9.5-21.9,17.3-32.8,25.9h-5.5ZM123.4,117.8c0,35.1-3,69,.6,102.2,9.3,86.8,46.8,159.7,115.9,214.8,14.6,11.7,18.8,11.8,33.3.3,50.5-40.1,82.1-93.2,101.8-153.4,14.9-45.4,14.5-93.2,17-140.4,1.3-25.7-.8-27.4-26.5-22.6-.4,0-.9.2-1.3.3-28.4,5.7-54.3.3-76.8-18.4-11.5-9.6-22.4-19.9-34.4-30.7-35,39.6-74.5,66.9-129.6,47.9Z"/>
      <path d="M354.6,150.6c0,28.1,1.8,54-.4,79.5-5.6,65-37,116.9-85.4,159.4-8.1,7.1-15.3,6.5-23.1.6-50-37.6-80.9-87.1-88.9-149.4-3.2-24.7-2.4-49.9-3-74.9-.1-4.2,1.6-8.5,2.9-14.5,44.1,24.4,71.4-1.2,97.5-31.8,26.1,32.4,56,51.4,100.4,31Z"/>
      <path d="M444.7,394.8"/>
    </g>
  </g>
</svg>