<?xml version="1.0" encoding="UTF-8"?>
<svg xmlns="http://www.w3.org/2000/svg" version="1.1" viewBox="0 0 500 500">
  <!-- Generator: Adobe Illustrator 28.6.0, SVG Export Plug-In . SVG Version: 1.2.0 Build 709)  -->
  <g>
    <g id="Layer_1">
      <path d="M-2.9,268.7c0-12.5,0-25,0-37.5,11.1-4.2,22.3-8.4,34.9-13.2C52.7,116.9,115.8,54.5,215.8,34.7,221.3,21,225.5,10.5,229.7,0c12.6,0,25.1,0,37.7,0,4.2,11.1,8.5,22.1,13.3,34.7,101.9,20.4,164.3,83.5,184.4,182.6,13.8,5.5,24.4,9.7,34.9,13.9v37.5c-11.1,4.2-22.3,8.4-35,13.2-20.5,101.3-84.1,163.4-187.9,184.2-2,30.5-3.3,32.6-19.1,33.4q-33.6,1.6-38.7-33.8c-104.5-20.8-167.2-83.8-187.3-183.2-13.8-5.5-24.3-9.7-34.9-13.9ZM88.7,277.4c13.5,69.6,69.7,124.7,132.9,130.5v-40.2h55.1v40.9c68.5-12.1,123.4-67.2,131-131.6h-40.8v-54.5h41.2c-11.3-67.4-65.4-121.1-132-130.9v40.8h-55.5v-40.7c-66.6,9.5-128.2,71.4-130.4,131.2h40v54.7h-41.5Z"/>
    </g>
  </g>
</svg>