<?xml version="1.0" encoding="UTF-8"?>
<svg xmlns="http://www.w3.org/2000/svg" version="1.1" viewBox="0 0 500 500">
  <!-- Generator: Adobe Illustrator 28.6.0, SVG Export Plug-In . SVG Version: 1.2.0 Build 709)  -->
  <g>
    <g id="Layer_1">
      <path d="M474.1,379c-7.3,3.5-14.3,8-21.9,10.2-70.7,21.1-142.7,34.3-216.9,33.5-33.7-.4-67.4-.6-101,.2-15.5.4-20.9-6.4-20.6-20.8.3-17.8.2-35.5,0-53.3-.1-10.8,3.5-18.1,15.4-18.2,107.2-.9,214.6-4.2,318.5,30,9.2,3,17.8,8.1,26.6,12.1v6.2Z"/>
      <path d="M474.4,251.4c-7.4,3.4-14.5,7.7-22.2,10.2-63.4,20.2-128.5,30-194.9,31.2-41,.7-81.9,0-122.9.4-14.6.1-21.4-5.3-20.8-20.6.7-17.7-1.1-35.6.8-53.1.7-6.1,9.2-16.1,14.3-16.2,110.1-1.9,220.4-5,326.6,32,6.5,2.3,12.4,6.2,18.6,9.4.1,2.3.3,4.5.4,6.8Z"/>
      <path d="M474.1,123.1c-8,3.7-15.6,8.4-24,11-61.7,19.1-125,29.5-189.5,30.8-41.6.8-83.2-.3-124.8.6-17,.4-23-6.4-22.2-22.8.9-17.1-.7-34.4.7-51.4.4-4.8,8-12.9,12.1-12.7,87.2,2.4,175.1-9.5,261.5,10.7,23.2,5.4,46.2,11.7,69.1,18.3,6,1.7,11.2,6.1,16.8,9.2,0,2.1.2,4.3.3,6.4Z"/>
      <path d="M99.3,377c.2,53.4,3,45.1-46.4,45.6-22.4.2-27-4.5-27.1-26.5,0-15.3.5-30.6-.2-45.8-.5-12.5,5.9-17.8,17-19.4,3-.4,6.1-.4,9.1-.4,52.7.3,47.4-5.8,47.5,46.5Z"/>
      <path d="M99.3,249.1c-.3,47.1,6.3,44.1-44.7,43.9-25.7,0-28.7-3.2-28.7-28.2,0-14.1.6-28.2-.2-42.3-.7-13.7,6.9-18.5,18.6-19.9,2.4-.3,4.9-.2,7.3-.2,54.4.1,47.3-4.5,47.6,46.6Z"/>
      <path d="M99.3,121c0,49,4.7,43.9-44.5,44-25.8,0-28.9-3.1-28.9-28,0-14.7.3-29.4-.1-44.1-.4-11.2,4.5-15.7,15.4-15,4.9.3,9.8,0,14.7,0q43.5,0,43.5,43.1Z"/>
    </g>
  </g>
</svg>