<?xml version="1.0" encoding="UTF-8"?>
<svg xmlns="http://www.w3.org/2000/svg" version="1.1" viewBox="0 0 500 500">
  <!-- Generator: Adobe Illustrator 28.6.0, SVG Export Plug-In . SVG Version: 1.2.0 Build 709)  -->
  <g>
    <g id="Layer_1">
      <path d="M246.6,463.5c-16-3.8-35.2-7.1-53.6-13.1-18.6-6.1-20.9-12.5-16.4-31.1.6-2.4,1.5-4.7,1.9-7,3.6-20.6-2.3-27.3-23.3-29.2-12.5-1.1-25.1-3.1-37.1-6.6-13.7-4.1-21.9-14.7-18.3-29.1,6.5-26.3-5.2-47.2-13.9-70.8-38.8-104.8-2.6-202.5,121.1-233.8,73.4-18.6,137.8,3.7,190.1,58.9,19.2,20.2,28.9,44.7,32.5,72.1,5.6,42.7,1.6,83.8-21.1,121.5-8.2,13.5-8.1,27.5-5.8,42.3,4.2,27.6-4.1,38.8-31.7,43.5-8.1,1.4-16.5,1.6-24.7,2.3-18.5,1.4-24.2,8.3-21.7,26.6,4.8,34.5,2.9,38-31.1,46.3-14.1,3.5-28.8,4.5-46.9,7.2ZM169.7,328.6c12.1-3.4,24.7-5.5,36.1-10.5,18.7-8.2,24.3-23,19.3-45-3.7-16-15.2-24.4-35.4-23.1-11.9.8-24.3,3.1-35.4,7.3-19.7,7.5-28.2,25.9-23.4,46.2,3.9,16.6,16.2,24,38.9,25.2ZM277.4,286.5c-2.1,15.7,6.9,26.9,21.7,32.4,11.6,4.3,24.4,6.9,36.8,7.7,20.4,1.3,32.7-7,36.5-22,5-19.2-2.9-38.8-21.1-46.2-11.9-4.8-25.2-7.7-38-8.4-24.6-1.4-35.8,10.4-36,36.5ZM262.8,375c9.1,1.8,14.6-1.3,10.5-11.3-4.2-10.3-8.3-20.7-13.5-30.5-4.7-8.8-11.5-9.3-16.3-.1-5.4,10.3-9.9,21.1-13.9,31.9-3.5,9.4,2.5,12.3,10.5,12,7.6-.3,15.1-1.3,22.6-2Z"/>
    </g>
  </g>
</svg>